<svg width="140" height="23" viewBox="0 0 140 23" fill="none" xmlns="http://www.w3.org/2000/svg">
    <path d="M132.645 18.1757C131.493 18.1757 130.466 17.8745 129.562 17.2723C128.677 16.67 127.986 15.8464 127.49 14.8013C127.012 13.7562 126.773 12.5783 126.773 11.2675C126.773 9.95676 127.012 8.77883 127.49 7.73375C127.986 6.68868 128.677 5.86501 129.562 5.26277C130.466 4.66052 131.493 4.35939 132.645 4.35939C133.796 4.35939 134.779 4.66052 135.594 5.26277C136.426 5.8473 137.046 6.66211 137.454 7.70718C137.879 8.75226 138.091 9.93904 138.091 11.2675C138.091 12.596 137.879 13.7828 137.454 14.8279C137.046 15.873 136.426 16.6966 135.594 17.2989C134.779 17.8834 133.796 18.1757 132.645 18.1757ZM133.335 15.3061C134.008 15.3061 134.593 15.1467 135.089 14.8279C135.585 14.4913 135.966 14.0219 136.231 13.4197C136.497 12.7997 136.63 12.0823 136.63 11.2675C136.63 10.0099 136.338 9.02682 135.753 8.31829C135.169 7.60976 134.363 7.2555 133.335 7.2555C132.733 7.2555 132.193 7.42377 131.715 7.76032C131.254 8.09687 130.891 8.57513 130.625 9.19509C130.36 9.79734 130.227 10.4882 130.227 11.2675C130.227 12.4543 130.519 13.4285 131.103 14.1902C131.688 14.9342 132.432 15.3061 133.335 15.3061ZM136.55 14.1105L136.816 11.2675L136.55 8.42457V4.62509H139.925V17.91H136.55V14.1105Z" fill="black"/>
    <path d="M121.378 4.62509H124.753V17.91H121.378V4.62509ZM121.378 0.00195312H124.753V3.08404H121.378V0.00195312Z" fill="black"/>
    <path d="M114.043 18.1757C112.325 18.1757 110.943 17.786 109.898 17.0066C108.871 16.2272 108.313 15.1556 108.224 13.7917H111.545C111.652 14.3408 111.917 14.7659 112.343 15.067C112.785 15.3681 113.361 15.5187 114.07 15.5187C114.76 15.5187 115.301 15.3947 115.69 15.1467C116.098 14.881 116.301 14.5268 116.301 14.0839C116.301 13.8005 116.204 13.5614 116.009 13.3665C115.832 13.154 115.575 13.0211 115.239 12.968L112.183 12.3835C111.049 12.1709 110.173 11.7369 109.553 11.0815C108.95 10.4084 108.649 9.55821 108.649 8.53085C108.649 7.68061 108.862 6.94552 109.287 6.32556C109.73 5.70559 110.35 5.22734 111.147 4.89079C111.962 4.53653 112.909 4.35939 113.99 4.35939C115.513 4.35939 116.753 4.72251 117.71 5.44875C118.684 6.17499 119.233 7.14922 119.357 8.37143H116.169C116.062 7.96403 115.805 7.63633 115.398 7.38835C115.008 7.14036 114.53 7.01637 113.963 7.01637C113.361 7.01637 112.874 7.13151 112.502 7.36178C112.13 7.59205 111.944 7.90203 111.944 8.29172C111.944 8.62827 112.059 8.90282 112.289 9.11538C112.537 9.32794 112.918 9.4785 113.432 9.56707L116.487 10.125C117.497 10.3199 118.268 10.7273 118.799 11.3472C119.33 11.9672 119.596 12.782 119.596 13.7917C119.596 15.1379 119.091 16.2095 118.082 17.0066C117.09 17.786 115.743 18.1757 114.043 18.1757Z" fill="black"/>
    <path d="M100.873 18.1757C99.6155 18.1757 98.4995 17.8834 97.5253 17.2989C96.5511 16.7143 95.7894 15.8995 95.2403 14.8544C94.6912 13.8094 94.4166 12.6137 94.4166 11.2675C94.4166 9.92133 94.6912 8.72569 95.2403 7.68061C95.7894 6.63554 96.5511 5.82073 97.5253 5.2362C98.4995 4.65166 99.6155 4.35939 100.873 4.35939C102.131 4.35939 103.229 4.6428 104.168 5.20963C105.124 5.75873 105.851 6.54697 106.346 7.57433C106.86 8.58399 107.117 9.78848 107.117 11.1878C107.117 11.4181 107.108 11.6572 107.09 11.9052V12.1178H96.4891V9.75306H104.726L103.955 10.1516C103.867 9.12424 103.557 8.34486 103.025 7.81346C102.512 7.28207 101.794 7.01637 100.873 7.01637C100.289 7.01637 99.7395 7.16693 99.2258 7.46806C98.7298 7.76918 98.3313 8.18544 98.0301 8.71683C97.7467 9.24823 97.605 9.83277 97.605 10.4704V12.0646C97.605 12.72 97.7556 13.3134 98.0567 13.8448C98.3578 14.3585 98.7564 14.7659 99.2523 15.067C99.7483 15.3681 100.289 15.5187 100.873 15.5187C101.688 15.5187 102.343 15.3681 102.839 15.067C103.335 14.7482 103.645 14.3231 103.769 13.7917H106.904C106.834 14.6419 106.524 15.4036 105.974 16.0767C105.443 16.7498 104.735 17.2723 103.849 17.6443C102.963 17.9985 101.971 18.1757 100.873 18.1757Z" fill="black"/>
    <path d="M80.6934 0.00195312H84.0678V6.80381H83.7224C84.112 6.04215 84.67 5.44875 85.3963 5.02364C86.1402 4.58081 86.9993 4.35939 87.9735 4.35939C89.3729 4.35939 90.4799 4.83765 91.2947 5.79416C92.1273 6.73296 92.5435 8.00831 92.5435 9.62021V17.91H89.1692V10.0188C89.1692 9.15081 88.9477 8.47771 88.5049 7.99945C88.0621 7.50348 87.4775 7.2555 86.7513 7.2555C85.9542 7.2555 85.3077 7.53005 84.8117 8.07916C84.3157 8.61056 84.0678 9.32794 84.0678 10.2313V17.91H80.6934V0.00195312Z" fill="black"/>
    <path d="M75.6084 17.91C74.6342 17.91 73.8282 17.6 73.1905 16.9801C72.5706 16.3424 72.2606 15.5365 72.2606 14.5622V0.958521H75.6349V13.9246C75.6349 14.2611 75.7501 14.5445 75.9804 14.7748C76.2106 15.0051 76.494 15.1202 76.8306 15.1202H78.8233V17.91H75.6084ZM70.5336 4.62515H78.8233V7.41497H70.5336V4.62515Z" fill="black"/>
    <path d="M57.393 4.62509H60.7673V6.80381H60.4219C60.8116 6.04215 61.3696 5.44875 62.0958 5.02364C62.8398 4.58081 63.6989 4.35939 64.6731 4.35939C66.0724 4.35939 67.1795 4.83765 67.9943 5.79416C68.8268 6.73296 69.2431 8.00831 69.2431 9.62021V17.91H65.8687V10.0188C65.8687 9.15081 65.6473 8.47771 65.2045 7.99945C64.7617 7.50348 64.1771 7.2555 63.4509 7.2555C62.6538 7.2555 62.0073 7.53005 61.5113 8.07916C61.0153 8.61056 60.7673 9.32794 60.7673 10.2313V17.91H57.393V4.62509Z" fill="black"/>
    <path d="M44.3495 19.7699H46.8205C47.2456 19.7699 47.5644 19.6016 47.777 19.2651C47.9895 18.9462 48.0249 18.592 47.8832 18.2023L43.3664 4.62512H46.8736L50.1417 15.3859H49.132L52.4001 4.62512H55.9604L50.7262 20.381C50.5136 21.0364 50.1328 21.5589 49.5837 21.9486C49.0523 22.3383 48.4412 22.5331 47.7504 22.5331H44.3495V19.7699Z" fill="black"/>
    <path d="M37.5511 18.1757C35.833 18.1757 34.4513 17.786 33.4063 17.0066C32.3789 16.2272 31.8209 15.1556 31.7324 13.7917H35.0536C35.1599 14.3408 35.4256 14.7659 35.8507 15.067C36.2935 15.3681 36.8692 15.5187 37.5777 15.5187C38.2685 15.5187 38.8088 15.3947 39.1985 15.1467C39.6059 14.881 39.8096 14.5268 39.8096 14.0839C39.8096 13.8005 39.7121 13.5614 39.5173 13.3665C39.3402 13.154 39.0833 13.0211 38.7468 12.968L35.6913 12.3835C34.5576 12.1709 33.6808 11.7369 33.0608 11.0815C32.4586 10.4084 32.1575 9.55821 32.1575 8.53085C32.1575 7.68061 32.37 6.94552 32.7952 6.32556C33.238 5.70559 33.8579 5.22734 34.655 4.89079C35.4698 4.53653 36.4175 4.35939 37.498 4.35939C39.0213 4.35939 40.2613 4.72251 41.2178 5.44875C42.192 6.17499 42.7411 7.14922 42.8651 8.37143H39.6767C39.5704 7.96403 39.3136 7.63633 38.9062 7.38835C38.5165 7.14036 38.0383 7.01637 37.4714 7.01637C36.8692 7.01637 36.3821 7.13151 36.0101 7.36178C35.6381 7.59205 35.4521 7.90203 35.4521 8.29172C35.4521 8.62827 35.5673 8.90282 35.7975 9.11538C36.0455 9.32794 36.4264 9.4785 36.94 9.56707L39.9956 10.125C41.0052 10.3199 41.7757 10.7273 42.3071 11.3472C42.8385 11.9672 43.1042 12.782 43.1042 13.7917C43.1042 15.1379 42.5994 16.2095 41.5897 17.0066C40.5978 17.786 39.2516 18.1757 37.5511 18.1757Z" fill="black"/>
    <path d="M4.61784 19.6817H19.1794C22.7666 19.6817 25.0526 17.4759 25.4237 14.1017L26.1682 7.113H21.147L20.4553 13.4902C20.3751 14.34 19.8437 14.8187 18.9664 14.8187H5.09654L4.61784 19.6817ZM5.09654 14.8187L5.78825 8.44157C5.86838 7.59171 6.39981 7.113 7.27709 7.113H21.147L21.6257 2.25H7.0641C3.47695 2.25 1.19096 4.45585 0.819801 7.83L0.0753784 14.8187H5.09654Z" fill="var(--synth-text-accent, rgba(62, 87, 218, 1))"/>
</svg>